<svg width="100pt" height="11pt" version="1.0" viewBox="0 0 1164 125" xmlns="http://www.w3.org/2000/svg">
<g transform="translate(0 125) scale(.1 -.1)" fill="#d4c38e">
<path d="m4390 1182c-48-47-64-104-57-194 6-76 33-145 78-200 16-21 26-38 21-38-26 0-171 117-270 217-122 124-138 128-102 27 38-109 118-202 218-254 23-12 42-23 42-24 0-2-80-3-177-3-129 0-198-4-251-17-77-17-193-59-227-82-16-12-302-14-1692-14-1109 0-1673-3-1673-10s553-10 1640-10c902 0 1640-3 1640-7 0-5-15-18-33-30l-33-23h-1708c-1135 0-1705-3-1701-10s578-10 1691-10c926 0 1684-3 1684-6s-10-14-22-25c-22-18-72-18-1590-19-1039 0-1568-3-1568-10s586-10 1738-10l1737-1-60-28c-83-39-137-81-184-143-42-56-85-153-75-169 3-5 43 24 88 65 225 200 380 276 558 276l93-1-60-28c-75-35-151-95-188-148-33-48-78-153-71-165 3-5 44 26 92 68 108 95 207 166 292 209 110 56 157 65 327 65 144 0 157-2 203-25 155-78 351-132 610-167 128-17 672-17 800 0 259 35 455 89 610 167 46 23 59 25 203 25 170 0 217-9 327-65 85-43 184-114 291-208 48-42 89-74 92-71 7 7-14 67-42 122-34 66-121 146-203 186l-73 36h93c178 0 333-76 558-276 45-41 85-70 88-65 10 16-33 113-75 169-47 62-101 104-184 143l-60 28 1738 1c1151 0 1737 3 1737 10s-529 10-1567 10c-1519 1-1569 1-1590 19-13 11-23 22-23 25s758 6 1684 6c1113 0 1687 3 1691 10s-566 10-1701 10h-1708l-33 23c-18 12-33 25-33 30 0 4 738 7 1640 7 1087 0 1640 3 1640 10s-563 10-1669 10h-1669l-73 35c-137 64-279 88-481 80-71-3-128-3-128-1 0 3 21 15 47 28 69 34 156 125 191 199 30 65 45 122 35 132-3 3-55-45-117-107-98-99-243-216-268-216-5 0 5 17 21 38 45 55 72 124 78 200 7 90-9 147-57 194-34 34-43 38-89 38-42 0-56-5-83-29s-33-36-33-70c0-54 30-85 81-85 40 0 74 30 74 65 0 28-17 23-32-8-34-71-120-13-92 62 8 19 55 45 84 45 110 0 161-177 92-324-16-34-43-78-61-99-38-42-132-92-193-102-186-28-428-93-623-165-130-49-144-52-210-48-160 11-305 146-305 285 0 39 5 56 24 76 44 47 106 49 140 4 19-26 19-30 5-55-18-32-54-40-79-17-14 12-20 13-26 4-10-16 31-49 63-49 35 0 73 42 73 82 0 98-126 128-195 47l-25-31-26 31c-69 82-194 52-194-47 0-40 38-82 73-82 32 0 73 33 63 49-6 9-12 8-26-4-25-23-61-15-79 17-14 25-14 29 5 55 34 45 96 43 140-4 19-20 24-37 24-76 0-139-145-274-305-285-66-4-80-1-210 48-195 72-437 137-623 165-61 10-155 60-193 102-18 21-45 65-61 100-83 177 9 377 141 308 45-23 56-78 22-109-27-24-63-17-79 17-15 31-32 36-32 8 0-35 34-65 74-65 51 0 81 31 81 85 0 34-6 46-33 70s-41 29-83 29c-46 0-55-4-89-38zm-69-391c42-31 85-62 95-69 17-11 16-12-11-7-108 22-250 130-298 229-15 30-27 58-27 62s37-30 83-76c45-46 116-109 158-139zm3168 148c-40-74-119-148-202-188-68-33-138-53-103-29 92 62 183 137 246 201 41 42 79 77 83 77 5 0-6-27-24-61zm-3286-260c40-6 104-23 142-36 80-29 215-100 215-114 0-5-202-9-490-9-303 0-490 4-490 10 0 15 127 81 215 112 137 47 267 59 408 37zm297-10c113-12 284-43 395-70 185-46 405-123 405-141 0-5-123-8-273-8h-273l-120 71c-127 76-269 149-291 149-7 0-13 4-13 8 0 9 21 7 170-9zm2770 11c0-5-6-10-13-10-22 0-164-73-291-149l-120-71h-273c-150 0-273 3-273 8 0 18 220 95 405 141 148 37 327 65 525 84 19 2 36 5 38 5 1 1 2-2 2-8zm478-20c89-24 263-106 270-127 3-10-99-13-487-13-288 0-491 4-491 9 0 12 131 83 205 111 147 55 346 63 503 20zm-1919-35c45-85 179-184 251-185 58-1 48-17-38-59-48-23-122-63-164-88l-78-45-77 45c-43 25-117 65-165 88-86 42-96 58-38 59 72 1 206 100 251 185 13 25 26 45 29 45s16-20 29-45zm-1180-142c17-10 31-21 31-25 0-5-268-8-595-8-366 0-595 4-595 9 0 6 10 17 22 25 20 14 90 16 564 16 498 0 545-1 573-17zm3439 1c12-8 22-19 22-25 0-5-229-9-595-9-327 0-595 3-595 8 0 4 12 14 28 24 24 14 83 16 572 17 479 1 548-1 568-15zm-2621-84c88-40 273-142 273-152 0-4-37-5-82-2-300 19-442 39-598 84-90 26-250 87-250 96 0 2 132 4 294 4h294l69-30zm1323 26c0-9-160-70-250-96-156-45-298-65-597-84-46-3-83-2-83 2 0 9 181 110 270 151l65 30h298c163 1 297-1 297-3zm-2980-46c-81-43-162-101-252-181-32-27-58-46-58-42 0 20 59 100 102 140 52 47 108 78 188 104 91 30 99 21 20-21zm420-1c-84-46-155-96-247-176-35-30-63-51-63-47 0 17 65 106 105 143 49 45 106 76 185 102 91 30 99 21 20-22zm3151 25c78-23 144-59 197-107 43-40 102-120 102-140 0-5-28 16-62 46-93 80-164 130-248 176-80 43-77 51 11 25zm416 2c79-21 143-55 197-106 46-42 106-123 106-143 0-4-26 15-57 42-91 80-172 138-253 181-80 42-78 48 7 26z"/>
</g>
</svg>

