<svg width="35pt" height="40pt" version="1.0" viewBox="0 0 152 170" xmlns="http://www.w3.org/2000/svg">
<g transform="translate(0 170) scale(.1 -.1)" fill="#fff">
<path d="m669 1657c-51-14-89-39-136-89-48-50-73-116-80-212l-6-85-148-3c-164-3-183-10-224-79-19-33-20-52-20-459v-425l24-53c28-61 113-144 168-164 30-10 142-13 508-13h470l53 24c68 31 133 103 155 171 15 46 17 106 17 469 0 475 1 467-80 509-40 20-59 22-182 22h-138v74c0 98-23 166-77 226-72 81-198 117-304 87zm171-109c24-13 58-40 74-61 28-36 31-46 34-128l4-89h-201-201v58c0 78 15 126 53 169 63 72 156 92 237 51zm-390-507c0-112 3-132 19-152s23-22 47-14l29 10 3 143 3 142h199 200v-129c0-112 3-132 19-152s23-22 47-14l29 10 3 143 3 142h138c106 0 141-3 150-14 9-10 11-129 9-439l-3-425-31-39c-16-21-50-48-74-61-44-22-47-22-485-22-404 0-443 2-480 19-51 23-101 79-114 128-7 24-11 187-11 430 0 343 2 394 16 407 12 13 41 16 150 16h134v-129z"/>
</g>
</svg>
