<?xml version="1.0" encoding="UTF-8"?><svg width="36pt" height="42pt" version="1.0" viewBox="0 0 166 195" xmlns="http://www.w3.org/2000/svg"><g transform="translate(0 195) scale(.1 -.1)" fill="#FFF"><path d="m445 1756c-22-8-57-33-77-56-70-78-69-182 3-263 39-45 39-46 39-129 0-175 34-280 121-369s228-134 350-111c131 24 233 102 292 221 30 62 32 72 36 204l3 139 38 38c116 116 52 310-112 336-44 8-111-11-145-40l-27-23-39 28c-68 50-173 47-234-5l-27-23-40 29c-51 35-123 45-181 24zm134-112c21-17 31-35 31-54 0-15 9-38 19-51 16-20 23-22 47-14 20 7 30 18 32 35 8 71 48 110 111 110 41 0 91-44 91-80 0-15 9-38 19-51 16-20 23-22 47-14 20 7 30 18 32 35 12 99 101 143 171 84 26-22 31-33 31-71 0-45-24-80-75-109-15-8-20-25-23-77l-4-67h-299-299v63c0 71-3 76-48 103-42 24-61 79-42 124 25 61 106 79 159 34zm528-473c-16-135-131-238-276-248-156-11-292 98-316 255l-7 42h303 302l-6-49z"/><path d="m404 810c-27-11-44-58-44-121 0-45-2-48-45-74-119-69-195-197-198-331-1-52 2-59 31-85l33-29 640 2 641 3 25 29c23 27 25 36 21 97-9 124-92 257-200 317l-48 27v67c0 60-3 69-26 87-15 12-33 21-40 21-8 0-97-38-197-85l-184-85-183 85c-100 47-187 85-194 84-6 0-21-4-32-9zm188-166 111-56-71-34c-95-46-115-77-120-196l-4-88h-150-150l7 43c9 57 48 136 84 171 16 15 58 42 93 59l63 32 3 63c2 34 7 62 13 62 5 0 59-25 121-56zm582-62c4-8 27-22 50-32 104-45 171-129 183-230l6-50h-402-401v79c0 54 4 82 14 90 7 6 130 65 272 131l259 120 5-48c3-26 9-53 14-60z"/><path d="m824 445c-15-23-15-27 0-50 28-43 86-26 86 25s-58 68-86 25z"/><path d="m1024 445c-15-23-15-27 0-50 28-43 86-26 86 25s-58 68-86 25z"/></g></svg>