<?xml version="1.0" encoding="UTF-8"?>
<!DOCTYPE svg  PUBLIC '-//W3C//DTD SVG 20010904//EN'  'http://www.w3.org/TR/2001/REC-SVG-20010904/DTD/svg10.dtd'>
<svg width="15pt" height="14pt" version="1.0" viewBox="0 0 276 266" xmlns="http://www.w3.org/2000/svg" fill="#4B7194">
<g transform="translate(0 266) scale(.1 -.1)">
<path d="m1240 2634c-562-71-995-470-1117-1026-25-116-24-379 1-498 110-511 495-896 1006-1006 118-25 381-26 498 0 257 55 471 170 654 352 179 179 299 400 354 654 26 119 26 381 0 500-111 514-493 896-1006 1006-73 15-320 27-390 18zm350-150c465-88 826-450 915-916 19-104 19-312 0-416-89-466-450-828-915-916-107-21-313-21-420 0-464 88-826 450-915 916-19 104-19 312 0 416 42 222 140 413 295 576 166 175 363 285 600 336 110 24 326 26 440 4z"/>
<path d="m960 1980v-80h420 420v80 80h-420-420v-80z"/>
<path d="m1300 1318v-423l-285 285-115-115 480-480 480 480-115 115-285-285v423 422h-80-80v-422z"/>
</g>
</svg>
