<?xml version="1.0" encoding="UTF-8"?>
<!DOCTYPE svg  PUBLIC '-//W3C//DTD SVG 20010904//EN'  'http://www.w3.org/TR/2001/REC-SVG-20010904/DTD/svg10.dtd'>
<svg width="36pt" height="36pt" version="1.0" viewBox="0 0 512 512" xmlns="http://www.w3.org/2000/svg" fill="#FFF">
<g transform="translate(0 512) scale(.1 -.1)">
<path d="m2330 5110c-494-48-950-230-1350-538-195-150-448-432-594-662-63-99-186-351-230-471-51-139-103-344-128-504-31-200-31-550 0-750 43-273 114-500 237-750 132-269 269-460 489-681 221-220 412-357 681-489 247-121 469-192 745-237 195-31 565-31 760 0 276 45 498 116 745 237 269 132 460 269 681 489 220 221 357 412 489 681 123 250 194 477 237 750 31 200 31 550 0 750-43 273-114 500-237 750-132 269-269 460-489 681-221 220-412 357-681 489-246 121-474 193-740 235-147 23-475 34-615 20zm504-185c1005-118 1830-861 2050-1846 59-263 72-619 32-874-62-394-217-761-460-1085-81-108-307-341-411-422-435-341-943-518-1485-518s-1050 177-1485 518c-104 81-330 314-411 422-243 325-398 690-460 1085-24 157-29 454-10 619 53 453 221 861 504 1221 71 90 287 306 377 377 351 276 766 450 1198 502 153 19 405 19 561 1z"/>
<path d="m2474 4300c-110-16-186-52-264-125-47-45-66-56-131-74-209-58-452-191-620-338-67-59-199-199-227-240-8-13-19-23-24-23s-46 32-90 70l-82 71-20-21-21-20 168-168-27-46c-15-25-30-46-34-46s-47 41-97 90l-91 91-23-25-24-25 97-105c53-57 96-110 96-117-1-8-9-29-18-47l-18-33-118 112-117 112-27-26-27-27 129-129 128-129-34-104-147 146-147 147-22-23-21-23 97-111c53-60 123-140 155-176l58-66-15-89c-42-254-24-500 56-753 40-129 143-335 225-450 74-104 245-282 335-349l58-43v-156-155l113 6c61 4 133 7 158 7 39 0 47 4 57 25 22 48 20 49-117 42l-128-7-6 92c-3 51-5 94-3 95 1 2 11-3 21-11 13-9 20-30 23-70l4-56 87-2c142-3 161-6 281-42 63-19 141-37 173-41 64-8 71-13 59-45-7-19 7-37 106-134 62-61 119-112 125-114 7-1 57 49 113 111 88 99 100 116 92 137-5 12-6 25-4 27 2 3 46 13 98 23 51 10 129 30 173 44s121 29 170 33l90 8 5 35c3 23 11 36 23 38 14 3 17-4 17-41 0-25 2-52 5-60 5-11-18-15-127-20-74-3-141-9-151-12-15-6-15-10-1-36l15-29h163c157 0 164 1 169 21 5 19 3 56-8 181-4 45-3 48 33 69 225 136 452 389 582 649 111 220 159 417 167 680 6 221-15 367-83 563-25 73-47 141-50 152-5 17 41 66 230 249 130 126 234 231 232 234-16 15-323-62-471-119-44-16-100-38-124-47l-44-17-40 50c-69 84-228 238-307 296-151 111-284 180-459 239-66 22-126 40-132 40-7 0-38 24-69 54-105 101-239 145-376 126zm-465-470c-43-140-61-352-38-462 35-166 117-274 359-470 58-47 111-96 119-110 11-21 11-93 2-423-6-219-13-400-15-403-3-2-146 132-318 299l-314 303 25 61c34 85 40 187 13 247-25 57-114 152-322 341-91 83-167 152-169 154-9 6 24 54 80 117 112 126 245 235 392 321 50 28 199 96 204 92 1-2-7-32-18-67zm1149 15c134-65 265-153 364-243 70-66 168-176 168-190 0-4-41-34-90-66-64-43-162-131-347-311l-257-251 24-55c19-41 24-71 24-129 1-128-47-199-289-429l-130-123-8 337c-5 234-4 350 4 378 8 31 31 59 102 126 249 233 306 300 348 410 42 109 35 330-17 509-13 45-24 84-24 87 0 10 18 3 128-50zm-965-262c3-82 12-159 21-189 26-85 108-222 174-295 73-79 67-97-18-54-107 54-208 180-244 304-20 70-20 200 0 276 16 64 40 109 53 101 5-3 11-67 14-143zm-575-680-31-32-66 59c-36 32-115 108-175 168l-108 110 26 45 27 46 358-364-31-32zm-258 54 153-158-25-26-26-26-300 286 16 44c9 24 19 42 22 41 4-2 76-74 160-161zm2561 22c167-525 37-1081-345-1471-85-86-222-195-291-232l-36-20-92 46c-85 43-109 62-307 253-136 130-216 214-218 229-2 17 35 62 164 197 283 296 1078 1089 1089 1086 5-2 22-41 36-88zm-2564-337-31-32-112 111c-62 62-111 117-109 123s9 30 15 54l11 42 129-132 128-133-31-33zm3-198c47-26 226-26 284-1 21 9 44 17 51 17 15 0 644-661 643-675-1-5-100-103-220-218-178-168-232-214-289-242l-69-35-61 41c-300 203-525 545-599 907-24 121-35 284-25 386l7 78 121-120c67-66 138-128 157-138zm1067-1067c-5-154-11-225-23-259-17-53-4-50-134-27-75 14-240 60-240 68 2 20 44 69 208 240 101 105 186 191 189 191 4 0 3-96 0-213zm494-202c10-16 19-35 19-41 0-10-100-37-185-49-22-3-50-8-62-11-35-7-50 64-56 251l-5 160 135-140c75-77 144-153 154-170zm-496-294c17-10 50-36 75-59l45-40 62 59c45 43 69 59 89 59h29l-45-42c-25-24-65-65-89-91l-43-49-66 64c-37 35-83 76-102 91-34 26-34 27-10 27 14 0 39-8 55-19z"/>
</g>
</svg>
