<?xml version="1.0" encoding="UTF-8"?>
<!DOCTYPE svg  PUBLIC '-//W3C//DTD SVG 20010904//EN'  'http://www.w3.org/TR/2001/REC-SVG-20010904/DTD/svg10.dtd'>
<svg width="18pt" height="18pt" version="1.0" viewBox="0 0 512 512" xmlns="http://www.w3.org/2000/svg">
<g transform="translate(0 512) scale(.1 -.1)" fill="#FFF">
<path d="m1100 5105c-287-43-514-157-721-364-213-213-329-451-368-750-15-117-15-2745 0-2862 39-299 155-537 368-750s451-329 750-368c117-15 2745-15 2862 0 299 39 537 155 750 368s329 451 368 750c15 117 15 2745 0 2862-39 299-155 537-368 750s-451 329-750 368c-128 17-2778 13-2891-4zm2997-452c113-39 138-52 231-116 148-102 265-261 324-440l33-102v-1435c0-1373-1-1438-19-1495-67-217-183-378-354-494-74-50-138-79-242-112l-75-24h-1435-1435l-102 33c-280 92-476 297-569 597-18 57-19 122-19 1495s1 1438 19 1495c71 228 195 394 380 510 78 49 212 101 295 115 25 4 683 7 1461 6l1415-1 92-32z"/>
<path d="m3880 4256c-71-16-112-38-160-87-65-67-85-120-85-224 0-78 4-97 27-140 55-104 148-165 264-173 85-5 130 7 201 55 199 134 176 439-40 542-74 35-133 43-207 27z"/>
<path d="m2396 3829c-483-67-895-403-1045-855-51-154-65-243-65-414s14-260 65-415c121-362 433-673 797-795 152-50 242-64 412-64s260 14 412 64c364 122 676 433 797 795 51 155 65 244 65 415 0 224-43 407-140 590-185 347-503 586-889 665-96 20-314 28-409 14zm421-458c107-35 136-49 218-104 168-113 281-270 346-477 20-65 24-96 24-230 0-165-12-226-71-357-74-168-249-343-418-418-130-58-191-70-356-70s-226 12-356 70c-169 75-344 250-418 418-59 131-71 192-71 357 0 134 4 165 24 230 34 108 64 171 121 254 113 164 271 277 465 334 99 29 114 31 265 27 119-3 146-7 227-34z"/>
</g>
</svg>
