<?xml version="1.0" encoding="UTF-8"?>
<!DOCTYPE svg  PUBLIC '-//W3C//DTD SVG 20010904//EN'  'http://www.w3.org/TR/2001/REC-SVG-20010904/DTD/svg10.dtd'>
<svg width="18pt" height="18pt" version="1.0" viewBox="0 0 512 512" xmlns="http://www.w3.org/2000/svg">
<g transform="translate(0 512) scale(.1 -.1)" fill="#FFF">
<path d="m505 4495c-135-30-231-82-322-175-70-70-115-143-151-242l-27-73v-1445-1445l27-73c73-200 221-343 418-404l75-23h2035 2035l75 23c197 61 345 204 418 404l27 73v1445 1445l-27 73c-72 197-217 338-413 404l-70 23-2020 2c-1663 1-2031-1-2080-12zm4137-313c73-36 124-87 160-161l23-46 3-1402c2-1395 2-1402-18-1457-27-72-94-144-167-181l-58-30h-2025-2025l-50 25c-74 36-148 114-173 183l-22 58v1388c0 1536-5 1428 65 1523 41 55 95 94 168 119 49 18 150 18 2052 16l2e3 -2 67-33z"/>
<path d="m694 3959c-73-21-118-104-95-178 10-35 91-111 657-616 355-318 644-581 642-585s-289-275-638-602-641-606-648-622c-42-93 30-200 135-198 24 0 54 7 66 15s311 285 665 616l643 602 172-154c95-84 184-162 199-171 33-22 111-23 141-3 12 8 103 87 202 175l179 161 26-23c14-13 305-289 648-614 661-627 653-621 731-606 46 10 98 62 106 108 17 86 34 66-656 721-610 580-639 609-622 625 10 9 298 268 640 574 544 487 624 562 634 597 16 53-1 108-46 148-30 26-44 31-89 31-40 0-61-6-82-22-23-18-1619-1446-1715-1535l-27-24-866 775c-476 427-876 782-889 790-31 20-77 26-113 15z"/>
</g>
</svg>
