<?xml version="1.0" encoding="UTF-8"?>
<!DOCTYPE svg  PUBLIC '-//W3C//DTD SVG 20010904//EN'  'http://www.w3.org/TR/2001/REC-SVG-20010904/DTD/svg10.dtd'>
<svg width="18pt" height="18pt" version="1.0" viewBox="0 0 512 512" xmlns="http://www.w3.org/2000/svg">
<g transform="translate(0 512) scale(.1 -.1)" fill="#FFF">
<path d="m2330 5109c-291-31-609-135-843-275-171-103-371-282-482-433-349-472-419-1093-204-1810 201-671 656-1415 1365-2231 236-272 312-348 357-356 77-13 105 0 195 94 98 102 352 393 473 542 643 789 1052 1544 1193 2201 55 255 71 557 41 781-77 580-412 1037-948 1293-192 92-373 148-583 181-119 18-446 26-564 13zm450-324c224-26 413-82 596-175 600-304 854-908 703-1670-103-519-410-1134-883-1774-183-246-612-761-636-761-14 0-258 281-425 490-659 823-1027 1546-1120 2200-22 148-19 398 4 537 55 315 199 577 430 781 329 289 836 431 1331 372z"/>
<path d="m2437 4109c-195-26-416-146-539-291-93-110-140-195-183-328-37-114-46-305-21-431 45-225 183-429 376-558 485-324 1138-101 1328 455 34 99 45 186 39 317-8 211-66 361-202 529-103 127-292 246-457 288-94 23-249 32-341 19zm307-344c179-62 329-230 366-412 19-90 8-234-24-317-116-305-466-449-758-313-197 92-314 264-325 477-7 119 7 188 57 288 77 154 234 272 402 302 79 13 202 3 282-25z"/>
</g>
</svg>
