<?xml version="1.0" encoding="UTF-8"?>
<!DOCTYPE svg  PUBLIC '-//W3C//DTD SVG 20010904//EN'  'http://www.w3.org/TR/2001/REC-SVG-20010904/DTD/svg10.dtd'>
<svg width="18pt" height="18pt" version="1.0" viewBox="0 0 512 512" xmlns="http://www.w3.org/2000/svg">
<g transform="translate(0 512) scale(.1 -.1)" fill="#FFF">
<path d="m2715 5015c-42-20-59-35-84-75-30-49-29-135 2-180 35-53 63-67 213-110 948-270 1530-850 1807-1798 48-165 64-192 132-223 81-37 165-14 215 58 36 53 32 126-14 281-311 1054-1005 1738-2055 2028-136 37-171 40-216 19z"/>
<path d="m1063 4816c-125-32-148-50-498-401-229-229-340-348-364-387-154-264-146-566 22-818 41-63 2898-2922 2972-2975 251-180 562-192 833-34 39 24 158 135 388 364 361 361 377 381 405 523 21 110-7 243-71 337-45 66-606 630-665 670-108 71-231 96-351 71-108-22-166-57-278-166l-102-99-729 723-730 723 97 100c54 56 108 123 122 151 74 145 73 305-1 446-19 36-122 146-338 364-170 173-329 327-353 344-92 64-250 92-359 64zm140-350c18-8 164-146 325-308 263-265 292-297 292-326 0-47-20-78-99-156l-70-69-258 251c-142 138-300 293-351 344l-93 94 83 86c49 51 93 88 108 91 14 2 26 5 28 6 1 0 17-5 35-13zm2742-3865c-127-124-173-145-315-146-87 0-101 3-165 33-67 32-125 88-1511 1475-1644 1644-1499 1483-1499 1672 0 104 2 113 32 170 17 33 71 102 119 153l87 94 1676-1677 1676-1676-100-98zm213 927c162-161 300-307 307-323 22-51 8-83-79-172l-81-84-350 350-350 351 55 56c81 83 127 114 169 114 33 0 54-19 329-292z"/>
<path d="m2713 4089c-46-14-100-71-113-120-18-64-4-114 44-164 34-36 51-45 101-54 501-97 884-473 985-966 16-78 32-108 77-142 31-24 46-28 103-28 58 0 71 4 104 29 22 16 47 49 59 75 18 42 19 52 8 119-87 515-485 992-981 1175-177 66-326 95-387 76z"/>
</g>
</svg>
