<?xml version="1.0" encoding="UTF-8"?>
<!DOCTYPE svg  PUBLIC '-//W3C//DTD SVG 20010904//EN'  'http://www.w3.org/TR/2001/REC-SVG-20010904/DTD/svg10.dtd'>
<svg width="60pt" height="14pt" version="1.0" viewBox="0 0 550 125" xmlns="http://www.w3.org/2000/svg">
<g transform="translate(0 125) scale(.1 -.1)" fill="#FFF">
<path d="m4735 1095c-172-32-302-117-381-251-61-103-86-247-65-370 42-238 227-381 544-419l57-7v33c0 19-9 53-19 75-17 37-26 44-88 68-72 27-127 74-156 131-29 59-38 146-35 355l3 205 47 3c38 2 47 0 51-15 3-10 18-107 33-216 29-208 42-247 85-247 10 0 19 3 19 6 0 8-79 483-86 517-6 27-5 27 45 27 39 0 51-4 55-17 3-10 26-108 50-217 25-110 48-202 51-205 10-10 40 15 43 36 2 11-15 92-38 181-22 89-40 166-40 172 0 5 22 10 50 10 37 0 52-4 59-17 5-10 36-96 70-191 50-141 61-184 61-235 0-91-22-154-75-216-38-44-45-59-45-94 0-45 17-117 27-117 4 0 41 17 82 37 143 71 243 200 276 358 19 88 19 144 0 223-68 288-357 457-680 397z"/>
<path d="m30 890v-50h125 125v-305-305h70 70v305 305h125 125v50 50h-320-320v-50z"/>
<path d="m740 585v-355h65 65v146c0 166 9 207 57 263 60 71 156 80 193 18 18-29 20-51 20-229v-198h65 65v228c0 196-2 232-18 261-27 55-63 75-140 79-89 4-151-29-202-106l-35-54-6 302h-64-65v-355z"/>
<path d="m1940 585v-355h70 70v165 165h160 160v50 50h-160-160v90 90h185 185v50 50h-255-255v-355z"/>
<path d="m3630 585v-355h65 65v145c0 162-4 156 74 133 79-24 156-132 156-219 0-54 7-59 82-59h71l-7 52c-4 29-16 74-28 100-25 59-107 138-170 164-27 10-47 22-45 26 1 4 60 68 130 143l129 135h-74-73l-115-115c-63-63-118-115-122-115-5 0-8 72-8 160v160h-65-65v-355z"/>
<path d="m1518 785c-63-23-106-63-139-131-73-147-23-325 111-398 97-53 249-45 341 17 32 21 34 27 37 85l3 62-63-32c-56-29-72-33-143-33-66 0-86 4-117 23-45 28-76 69-84 111l-6 31h202 203l-7 53c-21 162-87 227-231 226-38 0-87-7-107-14zm138-70c37-15 64-62 64-110v-25h-130c-126 0-130 1-130 21 0 37 41 90 84 110 50 23 66 23 112 4z"/>
<path d="m2650 783c-61-22-142-104-163-167-39-115-14-231 68-313 60-60 123-83 219-83 147 1 252 78 291 214 42 143-38 304-173 350-58 20-183 19-242-1zm194-98c65-31 101-110 94-206-5-66-24-100-79-137-45-31-129-28-177 7-101 72-103 262-3 328 41 28 116 31 165 8z"/>
<path d="m3388 780c-41-22-78-66-101-120l-15-35-1 83-1 82h-60-60v-280-280h65 65v175 175l36 39c19 22 51 45 71 52 35 11 111 8 146-6 15-6 17 0 17 58 0 59-2 65-22 71-43 11-103 5-140-14z"/>
</g>
</svg>
